<?xml version="1.0" encoding="UTF-8" standalone="no"?>
<!-- Created with Inkscape (http://www.inkscape.org/) -->

<svg
   xmlns:dc="http://purl.org/dc/elements/1.1/"
   xmlns:cc="http://creativecommons.org/ns#"
   xmlns:rdf="http://www.w3.org/1999/02/22-rdf-syntax-ns#"
   xmlns="http://www.w3.org/2000/svg"
   xmlns:sodipodi="http://sodipodi.sourceforge.net/DTD/sodipodi-0.dtd"
   xmlns:inkscape="http://www.inkscape.org/namespaces/inkscape"
   version="1.1"
   id="svg4485"
   xml:space="preserve"
   width="1488"
   height="837"
   viewBox="0 0 1488 836.99996"
   sodipodi:docname="78564-OFLO4K-834.svg"
   inkscape:version="0.92.1 r15371"><metadata
     id="metadata4491"><rdf:RDF><cc:Work
         rdf:about=""><dc:format>image/svg+xml</dc:format><dc:type
           rdf:resource="http://purl.org/dc/dcmitype/StillImage" /><dc:title></dc:title></cc:Work></rdf:RDF></metadata><defs
     id="defs4489"><clipPath
       clipPathUnits="userSpaceOnUse"
       id="clipPath4509"><path
         d="M 0,800 H 800 V 0 H 0 Z"
         id="path4507"
         inkscape:connector-curvature="0" /></clipPath><clipPath
       clipPathUnits="userSpaceOnUse"
       id="clipPath4539"><path
         d="M 0,800 H 800 V 0 H 0 Z"
         id="path4537"
         inkscape:connector-curvature="0" /></clipPath><clipPath
       clipPathUnits="userSpaceOnUse"
       id="clipPath4703"><path
         d="M 0,800 H 800 V 0 H 0 Z"
         id="path4701"
         inkscape:connector-curvature="0" /></clipPath><clipPath
       clipPathUnits="userSpaceOnUse"
       id="clipPath4711"><path
         d="M 284.503,48.6055 H 522.924 V 25.5342 H 284.503 Z"
         id="path4709"
         inkscape:connector-curvature="0" /></clipPath><clipPath
       clipPathUnits="userSpaceOnUse"
       id="clipPath5297"><rect
         style="fill:#000000;fill-opacity:1;stroke-width:0.75"
         id="rect5299"
         width="1116"
         height="627.75"
         x="3.6195245"
         y="-627.75"
         transform="scale(1,-1)" /></clipPath></defs><sodipodi:namedview
     pagecolor="#ffffff"
     bordercolor="#666666"
     borderopacity="1"
     objecttolerance="10"
     gridtolerance="10"
     guidetolerance="10"
     inkscape:pageopacity="0"
     inkscape:pageshadow="2"
     inkscape:window-width="1920"
     inkscape:window-height="1058"
     id="namedview4487"
     showgrid="false"
     fit-margin-top="0"
     fit-margin-left="0"
     fit-margin-right="0"
     fit-margin-bottom="0"
     inkscape:zoom="0.62162861"
     inkscape:cx="528.50734"
     inkscape:cy="364.2879"
     inkscape:window-x="1358"
     inkscape:window-y="-8"
     inkscape:window-maximized="1"
     inkscape:current-layer="g4493" /><g
     id="g4493"
     inkscape:groupmode="layer"
     inkscape:label="78564-OFLO4K-834"
     transform="matrix(1.3333333,0,0,-1.3333333,-4.8260325,836.99998)"><g
       id="g5488"><path
         inkscape:connector-curvature="0"
         id="path4497"
         style="fill:#fff592;fill-opacity:1;fill-rule:nonzero;stroke:none;stroke-width:0.99999994"
         d="M -4.861678e-6,71.411 H 1125.7572 V 237.873 H -4.8616781e-6 Z" /><path
         inkscape:connector-curvature="0"
         id="path4499"
         style="fill:#5babaf;fill-opacity:1;fill-rule:nonzero;stroke:none;stroke-width:1"
         d="M 1.2065171,1.7748215e-8 H 1125.7572 V 74.14 H 1.2065171 Z" /><path
         inkscape:connector-curvature="0"
         id="path4501"
         style="fill:#5babaf;fill-opacity:1;fill-rule:nonzero;stroke:none"
         d="m 279.53068,285.052 h -15.24 V 183.017 h 15.24 z" /><g
         transform="translate(172.53068)"
         id="g4503"><g
           clip-path="url(#clipPath4509)"
           id="g4505"><g
             transform="translate(133.8799,297.4053)"
             id="g4511"><path
               inkscape:connector-curvature="0"
               id="path4513"
               style="fill:#6c6966;fill-opacity:1;fill-rule:nonzero;stroke:none"
               d="M 0,0 C 0,-19.054 -15.446,-34.5 -34.5,-34.5 -53.554,-34.5 -69,-19.054 -69,0 -69,19.054 -53.554,34.5 -34.5,34.5 -15.446,34.5 0,19.054 0,0" /></g><g
             transform="translate(110.333,296.8535)"
             id="g4515"><path
               inkscape:connector-curvature="0"
               id="path4517"
               style="fill:#5babaf;fill-opacity:1;fill-rule:nonzero;stroke:none"
               d="m 0,0 c 0,-6.049 -4.904,-10.953 -10.953,-10.953 -6.049,0 -10.953,4.904 -10.953,10.953 0,6.049 4.904,10.953 10.953,10.953 C -4.904,10.953 0,6.049 0,0" /></g><path
             inkscape:connector-curvature="0"
             id="path4519"
             style="fill:#5babaf;fill-opacity:1;fill-rule:nonzero;stroke:none"
             d="M 91.76,183.017 H 228.5 V 90.786 H 91.76 Z" /></g></g><g
         transform="translate(172.53068)"
         id="g4533"><g
           clip-path="url(#clipPath4539)"
           id="g4535"><g
             transform="translate(725,82.4629)"
             id="g4541"><path
               inkscape:connector-curvature="0"
               id="path4543"
               style="fill:#6c6966;fill-opacity:1;fill-rule:nonzero;stroke:none"
               d="m 0,0 c 0,-4.597 -3.726,-8.322 -8.322,-8.322 h -644.356 c -4.596,0 -8.322,3.725 -8.322,8.322 0,4.596 3.726,8.321 8.322,8.321 H -8.322 C -3.726,8.321 0,4.596 0,0" /></g><g
             transform="translate(725.9316,183.8135)"
             id="g4545"><path
               inkscape:connector-curvature="0"
               id="path4547"
               style="fill:#6c6966;fill-opacity:1;fill-rule:nonzero;stroke:none"
               d="m 0,0 c 0,-3.494 -2.833,-6.327 -6.327,-6.327 h -273.21 c -3.494,0 -6.327,2.833 -6.327,6.327 0,3.494 2.833,6.327 6.327,6.327 H -6.327 C -2.833,6.327 0,3.494 0,0" /></g><path
             inkscape:connector-curvature="0"
             id="path4549"
             style="fill:#5babaf;fill-opacity:1;fill-rule:nonzero;stroke:none"
             d="m 486.333,120.734 h -22.666 v 56.752 h 22.666 z" /><path
             inkscape:connector-curvature="0"
             id="path4551"
             style="fill:#5babaf;fill-opacity:1;fill-rule:nonzero;stroke:none"
             d="m 498.333,90.785 h -48.666 v 29.949 h 48.666 z" /><path
             inkscape:connector-curvature="0"
             id="path4553"
             style="fill:#63c8c2;fill-opacity:1;fill-rule:nonzero;stroke:none"
             d="m 276.881,284.382 h -43.016 v 22.382 h 43.016 z" /><g
             transform="translate(290.1875,164.3271)"
             id="g4555"><path
               inkscape:connector-curvature="0"
               id="path4557"
               style="fill:#63c8c2;fill-opacity:1;fill-rule:nonzero;stroke:none"
               d="m 0,0 c 0,-40.618 -32.928,-73.547 -73.547,-73.547 -40.619,0 -73.547,32.929 -73.547,73.547 0,40.619 32.928,73.547 73.547,73.547 C -32.928,73.547 0,40.619 0,0" /></g><path
             inkscape:connector-curvature="0"
             id="path4559"
             style="fill:#63c8c2;fill-opacity:1;fill-rule:nonzero;stroke:none"
             d="M 216.641,318.311 H 192 V 209.066 h 24.641 z" /><g
             transform="translate(246.8608,231.3975)"
             id="g4561"><path
               inkscape:connector-curvature="0"
               id="path4563"
               style="fill:#63c8c2;fill-opacity:1;fill-rule:nonzero;stroke:none"
               d="m 0,0 168.602,-75.664 v -64.953 l -186.963,0.005 z" /></g><g
             transform="translate(192,361.8506)"
             id="g4565"><path
               inkscape:connector-curvature="0"
               id="path4567"
               style="fill:#63c8c2;fill-opacity:1;fill-rule:nonzero;stroke:none"
               d="m 0,0 h 15.872 l 39.335,-52.689 v -24.78 H 0.345 Z" /></g><g
             transform="translate(296.708,183.2637)"
             id="g4569"><path
               inkscape:connector-curvature="0"
               id="path4571"
               style="fill:#95dfda;fill-opacity:1;fill-rule:nonzero;stroke:none"
               d="M 0,0 C 0,-2.442 -1.98,-4.423 -4.423,-4.423 H -45.27 c -2.442,0 -4.422,1.981 -4.422,4.423 0,2.442 1.98,4.423 4.422,4.423 H -4.423 C -1.98,4.423 0,2.442 0,0" /></g><g
             transform="translate(218.7056,152.2187)"
             id="g4573"><path
               inkscape:connector-curvature="0"
               id="path4575"
               style="fill:#95dfda;fill-opacity:1;fill-rule:nonzero;stroke:none"
               d="M 0,0 -4.35,8.986 47.73,34.197 61.752,30.485 Z" /></g><g
             transform="translate(237.125,162.5322)"
             id="g4577"><path
               inkscape:connector-curvature="0"
               id="path4579"
               style="fill:#6c6966;fill-opacity:1;fill-rule:nonzero;stroke:none"
               d="m 0,0 c 0,-11.313 -9.171,-20.484 -20.484,-20.484 -11.313,0 -20.485,9.171 -20.485,20.484 0,11.313 9.172,20.484 20.485,20.484 C -9.171,20.484 0,11.313 0,0" /></g><g
             transform="translate(302.7979,309.4219)"
             id="g4581"><path
               inkscape:connector-curvature="0"
               id="path4583"
               style="fill:#95dfda;fill-opacity:1;fill-rule:nonzero;stroke:none"
               d="M 0,0 C 0,-2.537 -2.057,-4.594 -4.595,-4.594 H -81.81 c -2.537,0 -4.595,2.057 -4.595,4.594 0,2.538 2.058,4.596 4.595,4.596 H -4.595 C -2.057,4.596 0,2.538 0,0" /></g><g
             transform="translate(212.9014,357.2549)"
             id="g4585"><path
               inkscape:connector-curvature="0"
               id="path4587"
               style="fill:#95dfda;fill-opacity:1;fill-rule:nonzero;stroke:none"
               d="m 0,0 c 0,-2.537 -2.057,-4.594 -4.595,-4.594 h -28.651 c -2.537,0 -4.595,2.057 -4.595,4.594 0,2.538 2.058,4.596 4.595,4.596 H -4.595 C -2.057,4.596 0,2.538 0,0" /></g><path
             inkscape:connector-curvature="0"
             id="path4589"
             style="fill:#63c8c2;fill-opacity:1;fill-rule:nonzero;stroke:none"
             d="M 605,437.124 H 707.667 V 90.786 H 605 Z" /><path
             inkscape:connector-curvature="0"
             id="path4591"
             style="fill:#6c6966;fill-opacity:1;fill-rule:nonzero;stroke:none"
             d="M 664,131.641 H 646.5 V 437.124 H 664 Z" /><g
             transform="translate(672.333,369.6904)"
             id="g4593"><path
               inkscape:connector-curvature="0"
               id="path4595"
               style="fill:#95dfda;fill-opacity:1;fill-rule:nonzero;stroke:none"
               d="m 0,0 c 0,-2.696 -2.187,-4.884 -4.884,-4.884 h -152.898 c -2.697,0 -4.884,2.188 -4.884,4.884 0,2.697 2.187,4.884 4.884,4.884 H -4.884 C -2.187,4.884 0,2.697 0,0" /></g><g
             transform="translate(719.3838,442.0073)"
             id="g4597"><path
               inkscape:connector-curvature="0"
               id="path4599"
               style="fill:#95dfda;fill-opacity:1;fill-rule:nonzero;stroke:none"
               d="m 0,0 c 0,-2.696 -2.187,-4.884 -4.884,-4.884 h -115.115 c -2.697,0 -4.884,2.188 -4.884,4.884 0,2.697 2.187,4.884 4.884,4.884 H -4.884 C -2.187,4.884 0,2.697 0,0" /></g><g
             transform="translate(583,374.5742)"
             id="g4601"><path
               inkscape:connector-curvature="0"
               id="path4603"
               style="fill:#5babaf;fill-opacity:1;fill-rule:nonzero;stroke:none"
               d="M 0,0 63.5,62.549 V 52.22 L 11.5,0 Z" /></g><path
             inkscape:connector-curvature="0"
             id="path4605"
             style="fill:#95dfda;fill-opacity:1;fill-rule:nonzero;stroke:none"
             d="M 685.5,123.315 H 625 v 8.325 h 60.5 z" /><g
             transform="translate(580.2598,97.4854)"
             id="g4607"><path
               inkscape:connector-curvature="0"
               id="path4609"
               style="fill:#3b3b3b;fill-opacity:1;fill-rule:nonzero;stroke:none"
               d="m 0,0 c -0.43,-6.31 -6,-6.67 -12.81,-6.67 h -25.24 c -0.59,2.1 -2.51,3.63 -4.79,3.63 h -10.269 c -2.281,0 -4.201,-1.53 -4.801,-3.63 h -4.46 c -5.83,0 -10.76,-0.92 -12.319,6.67 0,0 6.589,1.779 8.846,1.996 C -49.45,3.571 0,0 0,0" /></g><g
             transform="translate(388.0859,426.7939)"
             id="g4611"><path
               inkscape:connector-curvature="0"
               id="path4613"
               style="fill:#ffdbaf;fill-opacity:1;fill-rule:nonzero;stroke:none"
               d="m 0,0 -22.49,0.977 1.471,33.885 22.49,-0.976 z" /></g><g
             transform="translate(394.9976,425.021)"
             id="g4615"><path
               inkscape:connector-curvature="0"
               id="path4617"
               style="fill:#ffbf41;fill-opacity:1;fill-rule:nonzero;stroke:none"
               d="m 0,0 c -4.588,6.954 -12.328,11.688 -21.287,12.077 -14.838,0.644 -23.821,-10.319 -24.465,-25.158 -0.013,-0.278 4.549,-113.125 4.549,-113.125 l 58.043,-1.41 5.994,54.811 c 3.717,3.261 10.407,10.119 10.726,17.474 C 33.994,-45.337 25.718,-31.929 0,0" /></g><g
             transform="translate(405.4326,278.0498)"
             id="g4619"><path
               inkscape:connector-curvature="0"
               id="path4621"
               style="fill:#ff6745;fill-opacity:1;fill-rule:nonzero;stroke:none"
               d="m 0,0 -2.199,-63.241 c 0,0 47.011,0.866 64.561,5.257 14.432,3.61 35.55,10.154 35.55,10.154 l -3.643,-39.737 14.325,-77.393 16.761,-0.531 c 0,0 7.458,128.841 4.728,149.193 C 128.826,-6.927 0,0 0,0" /></g><g
             transform="translate(415.8486,250.4023)"
             id="g4623"><path
               inkscape:connector-curvature="0"
               id="path4625"
               style="fill:#f9512f;fill-opacity:1;fill-rule:nonzero;stroke:none"
               d="m 0,0 c -0.875,-20.174 -17.939,-35.817 -38.113,-34.941 -20.174,0.876 -35.817,17.939 -34.941,38.112 0.876,20.174 17.94,35.817 38.113,34.942 C -14.767,37.237 0.877,20.174 0,0" /></g><g
             transform="translate(530.5781,124.1895)"
             id="g4627"><path
               inkscape:connector-curvature="0"
               id="path4629"
               style="fill:#1e0e00;fill-opacity:1;fill-rule:nonzero;stroke:none"
               d="M 0,0 C 0,2.91 1.716,5.27 3.833,5.27 5.95,5.27 7.668,2.91 7.668,0 v -6.912 c 0,-2.909 -1.718,-5.269 -3.835,-5.269 -2.117,0 -3.833,2.36 -3.833,5.269 z" /></g><g
             transform="translate(578.585,98.2959)"
             id="g4631"><path
               inkscape:connector-curvature="0"
               id="path4633"
               style="fill:#ffbf41;fill-opacity:1;fill-rule:nonzero;stroke:none"
               d="m 0,0 c 0,-0.28 -0.01,-0.551 -0.03,-0.811 h -74.69 c -0.34,1.63 -0.52,3.661 -0.52,6.18 0,6.151 4.33,11.29 10.1,12.551 0.88,0.189 1.8,0.29 2.74,0.29 l 14.39,1.68 0.39,0.04 7.28,0.849 27.5,-12.17 C -2.5,5.369 0,7.1 0,0" /></g><g
             transform="translate(348.9912,272.5195)"
             id="g4635"><path
               inkscape:connector-curvature="0"
               id="path4637"
               style="fill:#f9512f;fill-opacity:1;fill-rule:nonzero;stroke:none"
               d="m 0,0 c 0,0 -1.826,-54.369 0,-72.368 0.712,-7.02 6.28,-29.231 6.28,-29.231 0,0 -23.091,-0.775 -30.771,-1.603 -19.564,-2.109 -77.639,-18.318 -77.639,-18.318 v -12.036 c 0,0 112.805,-7.323 142.048,0 2.38,0.596 7.22,6.648 7.22,6.648 L 57.563,-0.907 Z" /></g><g
             transform="translate(263.0078,135.2998)"
             id="g4639"><path
               inkscape:connector-curvature="0"
               id="path4641"
               style="fill:#1e0e00;fill-opacity:1;fill-rule:nonzero;stroke:none"
               d="M 0,0 C 2.91,0 5.269,-1.717 5.269,-3.834 5.269,-5.952 2.91,-7.668 0,-7.668 h -6.912 c -2.91,0 -5.269,1.716 -5.269,3.834 0,2.117 2.359,3.834 5.269,3.834 z" /></g><g
             transform="translate(256.585,93.3555)"
             id="g4643"><path
               inkscape:connector-curvature="0"
               id="path4645"
               style="fill:#3b3b3b;fill-opacity:1;fill-rule:nonzero;stroke:none"
               d="m 0,0 c -0.16,-1.36 -0.96,-2.44 -0.96,-2.44 0,0 -11.94,-0.3 -16.47,0 -4.53,0.31 -9.52,9.22 -9.52,9.22 v 25.23 c 2.09,0.6 3.63,2.52 3.63,4.8 v 10.27 c 0,2.28 -1.54,4.2 -3.63,4.79 v 4.47 c 0,6.13 -1.02,11.25 7.87,12.53 V 8.84 c 0,0 0.62,-7.13 3.87,-8.26 C -12.78,-0.26 -4.17,-0.12 0,0" /></g><g
             transform="translate(256.585,93.3555)"
             id="g4647"><path
               inkscape:connector-curvature="0"
               id="path4649"
               style="fill:#ffbf41;fill-opacity:1;fill-rule:nonzero;stroke:none"
               d="m 0,0 c -4.17,-0.12 -12.78,-0.26 -15.21,0.58 -3.25,1.13 -3.87,8.26 -3.87,8.26 v 60.03 c 0.23,0.04 0.46,0.07 0.71,0.09 1.23,0.15 2.65,0.22 4.26,0.22 7.1,0 12.85,-5.75 12.85,-12.84 L 1.31,34.28 -4.22,21.78 -6.89,15.74 C -7.49,14.38 -7,6.17 -2.47,3.91 -0.27,2.81 0.15,1.28 0,0" /></g><g
             transform="translate(412.9746,307.7959)"
             id="g4651"><path
               inkscape:connector-curvature="0"
               id="path4653"
               style="fill:#ff6745;fill-opacity:1;fill-rule:nonzero;stroke:none"
               d="m 0,0 -2.869,-39.658 2.353,-9.88 -1.876,-16.858 -13.558,8.083 -33.485,19.964 -6.763,-23.896 -3.534,66.943 z" /></g><g
             transform="translate(423.6035,250.4014)"
             id="g4655"><path
               inkscape:connector-curvature="0"
               id="path4657"
               style="fill:#ff6745;fill-opacity:1;fill-rule:nonzero;stroke:none"
               d="m 0,0 c -0.824,-19 -16.01,-33.982 -34.633,-34.916 -1.146,-0.068 -2.307,-0.073 -3.485,-0.022 -20.169,0.875 -35.814,17.934 -34.938,38.11 0.313,7.219 2.706,13.856 6.566,19.369 6.926,9.88 18.593,16.133 31.544,15.569 7.317,-0.316 -1.2,-15.798 4.354,-19.75 l 9.684,7.894 19.81,-15.617 C -0.229,7.251 0.16,3.678 0,0" /></g><g
             transform="translate(390.5396,211.7832)"
             id="g4659"><path
               inkscape:connector-curvature="0"
               id="path4661"
               style="fill:#ffdbaf;fill-opacity:1;fill-rule:nonzero;stroke:none"
               d="M 0,0 H -12.767 L -23.871,106.966 H 1.435 Z" /></g><g
             transform="translate(391.9321,417.5381)"
             id="g4663"><path
               inkscape:connector-curvature="0"
               id="path4665"
               style="fill:#ffdbaf;fill-opacity:1;fill-rule:nonzero;stroke:none"
               d="M 0,0 C -0.434,7.165 -7.121,12.861 -15.33,12.861 -23.539,12.861 -30.226,7.165 -30.66,0 h -0.042 l 0.021,-0.375 c -0.004,-0.121 -0.021,-0.239 -0.021,-0.361 0,-0.58 0.055,-1.149 0.135,-1.71 l 5.304,-96.343 H 0.042 V 0 Z" /></g><path
             inkscape:connector-curvature="0"
             id="path4667"
             style="fill:#6c6966;fill-opacity:1;fill-rule:nonzero;stroke:none"
             d="M 409.122,194.712 H 361.23 v 10.425 h 47.892 z" /><g
             transform="translate(413.7578,184.6904)"
             id="g4669"><path
               inkscape:connector-curvature="0"
               id="path4671"
               style="fill:#3b3b3b;fill-opacity:1;fill-rule:nonzero;stroke:none"
               d="m 0,0 c 0,-3.979 -3.225,-7.204 -7.203,-7.204 -3.98,0 -7.204,3.225 -7.204,7.204 v 30.466 c 0,3.979 3.224,7.204 7.204,7.204 C -3.225,37.67 0,34.445 0,30.466 Z" /></g><g
             transform="translate(368.4336,184.6904)"
             id="g4673"><path
               inkscape:connector-curvature="0"
               id="path4675"
               style="fill:#3b3b3b;fill-opacity:1;fill-rule:nonzero;stroke:none"
               d="m 0,0 c 0,-3.979 -3.225,-7.204 -7.204,-7.204 -3.979,0 -7.204,3.225 -7.204,7.204 v 30.466 c 0,3.979 3.225,7.204 7.204,7.204 C -3.225,37.67 0,34.445 0,30.466 Z" /></g><g
             transform="translate(416.96,499.7153)"
             id="g4677"><path
               inkscape:connector-curvature="0"
               id="path4679"
               style="fill:#ffdbaf;fill-opacity:1;fill-rule:nonzero;stroke:none"
               d="m 0,0 c -6.796,-48.086 -10.702,-55.49 -20.243,-54.368 -18.314,2.153 -40.589,1.218 -43.202,21.131 -3.441,26.226 1.698,60.931 20.121,60.131 C -24.901,26.094 3.701,26.19 0,0" /></g><g
             transform="translate(366.479,448.1055)"
             id="g4681"><path
               inkscape:connector-curvature="0"
               id="path4683"
               style="fill:#3b3b3b;fill-opacity:1;fill-rule:nonzero;stroke:none"
               d="m 0,0 c 0,0 -34.896,11.311 -32.645,63.158 l 0.04,0.906 c 0,0 36.595,48.756 73.03,10.213 0,0 10.301,0.031 15.102,-7.461 8.073,-12.6 -5.879,-23.941 -5.879,-23.941 0,0 -12.074,7.48 -13.795,16.629 -1.721,9.148 -0.263,0.919 -0.263,0.919 0,0 -18.428,-23.1 -33.43,-23.809 0,0 -2.417,7.94 -7.409,4.426 C -11.705,36.496 -8.25,23.26 0.649,21.853 0.649,21.853 5.333,8.104 0,0" /></g><g
             transform="translate(347.167,508.3511)"
             id="g4685"><path
               inkscape:connector-curvature="0"
               id="path4687"
               style="fill:#3b3b3b;fill-opacity:1;fill-rule:nonzero;stroke:none"
               d="m 0,0 c 0,0 -3.852,25.349 -27.446,22.665 -33.738,-3.837 -19.093,-100.617 1.774,-127.542 0,0 8.961,18.319 5.597,51.527 C -24.361,-11.047 -19.286,16.18 0,0" /></g><g
             transform="translate(412.9648,482.1421)"
             id="g4689"><path
               inkscape:connector-curvature="0"
               id="path4691"
               style="fill:#ffdbaf;fill-opacity:1;fill-rule:nonzero;stroke:none"
               d="m 0,0 c 0,0 4.766,-12.288 5.328,-15.55 0.667,-3.863 -12.86,-2.333 -12.86,-2.333 z" /></g><g
             transform="translate(396.1289,193.0498)"
             id="g4693"><path
               inkscape:connector-curvature="0"
               id="path4695"
               style="fill:#ffdbaf;fill-opacity:1;fill-rule:nonzero;stroke:none"
               d="m 0,0 c 0,-6.508 -5.276,-7.781 -11.784,-7.781 v 0.151 c -6.508,0 -11.785,1.122 -11.785,7.63 v 9.82 c 0,6.508 5.277,14.957 11.785,14.957 C -5.276,24.777 0,15.309 0,8.801 Z" /></g></g></g></g></g></svg>